<svg width="0" height="0" class="hidden">
   <symbol fill="none" xmlns="http://www.w3.org/2000/svg" viewBox="0 0 146 66" width="145.81" height="66" id="logo">
    <path d="M0 14.581C0 6.528 6.528 0 14.581 0h29.163c8.053 0 14.582 6.528 14.582 14.581v29.163c0 8.053-6.529 14.582-14.582 14.582H14.581C6.528 58.326 0 51.797 0 43.744V14.581z" fill="#FCFCFC"></path>
    <g clip-path="url(#clip0)" fill="#000">
      <path d="M49.882 42.27l-.001-.018a.617.617 0 00-.01-.071l-.003-.007a.62.62 0 00-.017-.063l-.006-.016a.593.593 0 00-.023-.054l-.004-.01-3.247-6.479V14.236c0-.656-.527-1.19-1.175-1.19H12.93c-.648 0-1.175.534-1.175 1.19v21.316l-3.246 6.48a.627.627 0 00-.027.064l-.006.015a.63.63 0 00-.018.063l-.002.007a.61.61 0 00-.01.071l-.001.018-.002.039v1.558c0 .779.626 1.412 1.396 1.412h38.65c.77 0 1.396-.633 1.396-1.412v-1.558l-.002-.038zM12.968 14.276h32.39v20.81h-32.39v-20.81zm-.234 22.038h32.857l2.697 5.382H34.951l-.67-2.456a1.15 1.15 0 00-1.102-.85h-8.033c-.512 0-.966.35-1.102.85l-.67 2.456H10.038l2.697-5.382zm20.957 5.382h-9.057l.566-2.077h7.925l.566 2.077zm14.979 2.172a.183.183 0 01-.182.184H9.838a.183.183 0 01-.182-.184v-.944H48.67v.944z"></path>
      <path d="M43.134 25.326c-.337 0-.61.287-.61.642v6.515h-27.49v-6.515c0-.355-.274-.642-.61-.642-.337 0-.61.287-.61.642v6.792c0 .556.429 1.008.956 1.008h28.018c.527 0 .956-.452.956-1.008v-6.792c0-.355-.273-.642-.61-.642zm-.346-9.977H14.77c-.527 0-.956.452-.956 1.007v6.792c0 .355.273.643.61.643.337 0 .61-.288.61-.643v-6.514h27.49v6.514c0 .355.274.643.61.643.337 0 .61-.288.61-.643v-6.792c0-.555-.429-1.007-.956-1.007z"></path>
    </g>
    <path d="M88.187 26.122l3.906-20.75h5.958l-6.437 29.163h-6.017l-4.723-19.509-4.722 19.509h-6.018L63.698 5.372h5.958l3.925 20.71 4.782-20.71h5.062l4.762 20.75zm30.567-4.226h-11.477v7.812h13.47v4.827h-19.448V5.372h19.408v4.867h-13.43v6.95h11.477v4.707zm5.5 12.639V5.372h10.162c3.52 0 6.191.681 8.011 2.043 1.819 1.349 2.729 3.332 2.729 5.949 0 1.429-.365 2.69-1.096 3.785-.73 1.082-1.746 1.877-3.048 2.384 1.488.374 2.657 1.128 3.507 2.263.863 1.135 1.295 2.524 1.295 4.166 0 2.804-.89 4.928-2.67 6.37-1.78 1.442-4.318 2.176-7.612 2.203h-11.278zm5.978-12.699v7.872h5.121c1.408 0 2.504-.334 3.287-1.002.798-.68 1.196-1.615 1.196-2.804 0-2.67-1.375-4.026-4.125-4.066h-5.479zm0-4.246h4.423c3.016-.053 4.524-1.262 4.524-3.625 0-1.322-.386-2.27-1.156-2.845-.757-.587-1.96-.88-3.607-.88h-4.184v7.35zM66.767 55.2V44.743h3.176c.907 0 1.718.209 2.431.625a4.27 4.27 0 011.68 1.767c.401.761.602 1.628.602 2.6v.481c0 .972-.198 1.836-.595 2.593a4.248 4.248 0 01-1.666 1.76c-.718.416-1.528.627-2.43.631h-3.198zm2.127-8.711v6.98h1.028c.831 0 1.467-.275 1.906-.825.44-.551.664-1.339.674-2.363v-.553c0-1.063-.218-1.868-.652-2.413-.435-.551-1.07-.826-1.907-.826h-1.05zm13.524 4.18h-4.083v2.8h4.791V55.2H76.21V44.743h6.903v1.746h-4.777v2.492h4.083v1.688zm5.769 1.939l2.34-7.865h2.367L89.3 55.2h-2.218l-3.58-10.457h2.36l2.325 7.865zm11.894-1.939h-4.083v2.8h4.792V55.2h-6.918V44.743h6.903v1.746h-4.777v2.492h4.083v1.688zm4.082 2.801h4.515v1.73h-6.641V44.743h2.126v8.726zm13.765-3.261c0 1.03-.179 1.932-.539 2.707-.359.776-.874 1.375-1.545 1.796-.666.421-1.431.632-2.296.632-.855 0-1.619-.208-2.29-.625-.671-.416-1.19-1.01-1.559-1.781-.369-.776-.555-1.666-.56-2.672v-.517c0-1.03.182-1.934.546-2.715.368-.785.886-1.386 1.552-1.802.671-.422 1.437-.632 2.297-.632.86 0 1.623.21 2.289.632.671.416 1.188 1.017 1.552 1.802.369.78.553 1.683.553 2.708v.467zm-2.155-.474c0-1.097-.193-1.93-.581-2.5-.387-.57-.94-.854-1.658-.854-.714 0-1.264.282-1.652.847-.387.56-.583 1.384-.588 2.47v.51c0 1.069.194 1.897.581 2.486.388.589.945.883 1.673.883.713 0 1.261-.282 1.644-.847.383-.57.577-1.398.581-2.485v-.51zm5.827 1.781V55.2h-2.127V44.743h4.026c.775 0 1.456.144 2.042.431.59.288 1.044.697 1.36 1.228.317.527.475 1.128.475 1.803 0 1.025-.347 1.834-1.042 2.428-.689.588-1.646.883-2.87.883H121.6zm0-1.745h1.899c.563 0 .99-.134 1.283-.403.298-.268.447-.65.447-1.149 0-.512-.149-.926-.447-1.242-.298-.316-.709-.479-1.233-.488H121.6v3.282zm13.453.898h-4.083v2.8h4.791V55.2h-6.917V44.743h6.903v1.746h-4.777v2.492h4.083v1.688zm5.776.703h-1.694V55.2h-2.126V44.743h3.834c1.22 0 2.16.276 2.821.826.662.55.993 1.329.993 2.334 0 .714-.154 1.31-.461 1.789-.302.474-.763.852-1.382 1.135l2.233 4.273v.1h-2.283l-1.935-3.828zm-1.694-1.745h1.715c.534 0 .948-.136 1.241-.41.293-.277.439-.658.439-1.141 0-.493-.139-.881-.418-1.164-.274-.282-.697-.423-1.269-.423h-1.708v3.138z" fill="#FCFCFC"></path>
    <defs>
      <clipPath id="clip0">
        <path fill="#fff" transform="translate(10.744 10.744)" d="M0 0h55.256v55.256H0z"></path>
      </clipPath>
    </defs>
  </symbol>
  <symbol fill="none" xmlns="http://www.w3.org/2000/svg" viewBox="0 0 30 30" id="vk">
    <path d="M15 2.5c6.892 0 12.5 5.607 12.5 12.5 0 6.892-5.608 12.5-12.5 12.5-6.893 0-12.5-5.608-12.5-12.5C2.5 8.107 8.107 2.5 15 2.5zM15 0C6.716 0 0 6.716 0 15c0 8.284 6.716 15 15 15 8.284 0 15-6.716 15-15 0-8.284-6.716-15-15-15zm.726 19.996c.38 0 .536-.255.531-.572-.02-1.198.445-1.843 1.288-1.003.93.93 1.12 1.575 2.251 1.575h2.002c.503 0 .702-.162.702-.417 0-.54-.889-1.493-1.64-2.19-1.055-.979-1.102-1.003-.195-2.18 1.125-1.461 2.599-3.334 1.296-3.334h-2.488c-.484 0-.518.271-.69.678-.622 1.466-1.803 3.366-2.253 3.076-.471-.304-.255-1.504-.219-3.288.01-.471.008-.795-.713-.962a5.009 5.009 0 00-1.13-.129c-1.42 0-2.402.596-1.845.7.98.183.888 2.308.658 3.225-.399 1.598-1.897-1.265-2.522-2.69-.15-.344-.194-.61-.733-.61H7.992c-.308 0-.492.1-.492.322 0 .377 1.849 4.2 3.615 6.107 1.724 1.859 3.428 1.692 4.611 1.692z" fill="#FCFCFC"></path>
  </symbol>
  <symbol fill="none" xmlns="http://www.w3.org/2000/svg" viewBox="0 0 30 30" id="telegram">
    <path d="M15 30c8.271 0 15-6.729 15-15S23.271 0 15 0 0 6.729 0 15s6.729 15 15 15zm0-28.125c7.238 0 13.125 5.888 13.125 13.125 0 7.238-5.887 13.125-13.125 13.125-7.237 0-13.125-5.887-13.125-13.125C1.875 7.763 7.763 1.875 15 1.875z" fill="#FCFCFC"></path>
    <path d="M9.87 17.694l1.96-.851-.55.55a.938.938 0 00-.275.663v3.669c0 .84 1.015 1.247 1.6.662l1.967-1.967 4.288 2.144a.938.938 0 001.341-.672l2.447-13.45A.94.94 0 0021.383 7.4L5.486 13.621a.939.939 0 00-.162 1.664l3.667 2.34a.936.936 0 00.878.069zM20.503 9.76L18.58 20.329l-3.775-1.887a.935.935 0 00-1.081.177l-.845.845v-1.016l3.759-3.76c.729-.728-.091-1.93-1.037-1.522l-6.02 2.613-1.693-1.08L20.503 9.76z" fill="#FCFCFC"></path>
  </symbol>
  <symbol fill="none" xmlns="http://www.w3.org/2000/svg" viewBox="0 0 30 30" id="youtube">
    <path d="M13.132 17.81L18.01 15l-4.88-2.81v5.62z" fill="#FCFCFC"></path>
    <path d="M15 0C6.717 0 0 6.717 0 15c0 8.283 6.717 15 15 15 8.283 0 15-6.717 15-15 0-8.283-6.717-15-15-15zm9.373 15.015s0 3.042-.386 4.51a2.349 2.349 0 01-1.652 1.651c-1.467.387-7.335.387-7.335.387s-5.852 0-7.335-.402a2.349 2.349 0 01-1.652-1.652C5.627 18.057 5.627 15 5.627 15s0-3.042.386-4.509a2.396 2.396 0 011.652-1.667C9.132 8.438 15 8.438 15 8.438s5.868 0 7.334.401c.803.216 1.436.85 1.653 1.652.401 1.467.386 4.524.386 4.524z" fill="#FCFCFC"></path>
  </symbol>
  <symbol fill="none" xmlns="http://www.w3.org/2000/svg" viewBox="0 0 30 30" id="instagram">
    <g clip-path="url(#clip0)" fill="#FCFCFC">
      <path d="M29.97 8.82c-.07-1.594-.327-2.69-.697-3.64a7.32 7.32 0 00-1.735-2.66A7.383 7.383 0 0024.884.791c-.955-.37-2.046-.627-3.64-.697C19.64.018 19.13 0 15.056 0c-4.073 0-4.583.018-6.183.088-1.594.07-2.69.328-3.64.697a7.32 7.32 0 00-2.66 1.735 7.386 7.386 0 00-1.73 2.655C.476 6.13.218 7.22.148 8.815.07 10.42.053 10.93.053 15.002c0 4.073.017 4.583.088 6.183.07 1.594.328 2.69.697 3.64a7.398 7.398 0 001.735 2.66 7.383 7.383 0 002.655 1.729c.955.369 2.045.627 3.64.697 1.599.07 2.109.088 6.182.088s4.583-.017 6.183-.088c1.594-.07 2.69-.328 3.639-.697a7.673 7.673 0 004.39-4.39c.369-.955.627-2.045.697-3.64.07-1.6.088-2.109.088-6.182s-.006-4.583-.076-6.183zm-2.7 12.249c-.066 1.465-.312 2.256-.517 2.783a4.976 4.976 0 01-2.848 2.849c-.527.205-1.324.45-2.784.515-1.582.07-2.057.088-6.06.088-4.002 0-4.483-.017-6.06-.088-1.464-.064-2.256-.31-2.783-.515a4.617 4.617 0 01-1.723-1.12 4.665 4.665 0 01-1.12-1.723c-.205-.527-.45-1.324-.515-2.784-.07-1.582-.088-2.057-.088-6.06 0-4.002.018-4.483.088-6.06.064-1.464.31-2.255.516-2.783A4.56 4.56 0 014.5 4.448a4.657 4.657 0 011.723-1.12c.527-.204 1.324-.45 2.784-.515 1.582-.07 2.057-.088 6.06-.088 4.008 0 4.483.018 6.06.088 1.464.065 2.256.31 2.783.516.65.24 1.242.62 1.723 1.119a4.664 4.664 0 011.12 1.723c.204.528.45 1.325.515 2.784.07 1.582.088 2.057.088 6.06 0 4.002-.018 4.471-.088 6.054z"></path>
      <path d="M15.056 7.296a7.709 7.709 0 00-7.707 7.707 7.709 7.709 0 007.707 7.706 7.708 7.708 0 007.706-7.706 7.708 7.708 0 00-7.706-7.707zm0 12.706a5 5 0 11.001-10 5 5 0 01-.001 10zm9.81-13.01a1.8 1.8 0 11-3.598 0 1.8 1.8 0 013.598 0z"></path>
    </g>
    <defs>
      <clipPath id="clip0">
        <path fill="#fff" d="M0 0h30v30H0z"></path>
      </clipPath>
    </defs>
  </symbol>
</svg>